# Blender v2.69 (sub 0) OBJ File: 'Crate1.blend'
# www.blender.org
v 0.929289 -0.929289 -1.000000
v 1.000000 -0.929289 -0.929289
v 0.929289 -1.000000 -0.929289
v 0.929289 -1.000000 0.929289
v 1.000000 -0.929289 0.929289
v 0.929289 -0.929289 1.000000
v -0.929289 -1.000000 0.929289
v -0.929289 -0.929289 1.000000
v -1.000000 -0.929289 0.929289
v -1.000000 -0.929289 -0.929290
v -0.929289 -0.929289 -1.000000
v -0.929289 -1.000000 -0.929290
v 1.000000 0.929289 -0.929289
v 0.929290 0.929289 -0.999999
v 0.929290 1.000000 -0.929289
v 0.929289 1.000000 0.929290
v 0.929289 0.929289 1.000001
v 0.999999 0.929289 0.929290
v -0.929290 1.000000 0.929289
v -1.000000 0.929289 0.929289
v -0.929290 0.929289 1.000000
v -0.929289 0.929289 -1.000000
v -1.000000 0.929289 -0.929289
v -0.929289 1.000000 -0.929289
v 0.729290 0.729289 -0.800000
v 0.729289 -0.729289 -0.800000
v -0.729289 -0.729289 -0.800000
v -0.729289 0.729289 -0.800000
v 0.729289 -0.729289 0.800000
v 0.729289 0.729289 0.800000
v -0.729290 0.729289 0.800000
v -0.729289 -0.729289 0.800000
v -0.800000 -0.729289 0.729289
v -0.800000 0.729289 0.729289
v -0.800000 0.729289 -0.729289
v -0.800000 -0.729289 -0.729290
v 0.729290 0.800000 -0.729289
v -0.729289 0.800000 -0.729289
v -0.729290 0.800000 0.729289
v 0.729289 0.800000 0.729290
v 0.800000 -0.729289 -0.729289
v 0.800000 0.729289 -0.729289
v 0.799999 0.729289 0.729290
v 0.800000 -0.729289 0.729289
v 0.729289 -0.800000 -0.729289
v 0.729289 -0.800000 0.729289
v -0.729289 -0.800000 0.729289
v -0.729289 -0.800000 -0.729290
v 0.929289 -0.729289 -0.729289
v 1.000000 -0.800000 -0.800000
v 1.000000 -0.800000 0.800000
v 0.929289 -0.729289 0.729289
v 0.729289 -0.929289 0.729289
v 0.800000 -1.000000 0.800000
v 0.800000 -1.000000 -0.800000
v 0.729289 -0.929289 -0.729289
v -0.800000 -1.000000 -0.800000
v -0.729289 -0.929289 -0.729290
v -0.729289 -0.729289 -0.929290
v -0.800000 -0.800000 -1.000000
v 0.800000 -0.800000 -1.000000
v 0.729289 -0.729289 -0.929289
v 0.800000 0.800000 -1.000000
v 0.729290 0.729289 -0.929289
v 0.929290 0.729289 -0.729289
v 1.000000 0.800000 -0.800000
v 0.729289 -0.729289 0.929289
v 0.800000 -0.800000 1.000000
v -0.800000 -0.800000 1.000000
v -0.729289 -0.729289 0.929289
v -0.729289 -0.929289 0.729289
v -0.800000 -1.000000 0.800000
v 0.999999 0.800000 0.800001
v 0.929289 0.729289 0.729290
v 0.729289 0.729289 0.929290
v 0.799999 0.800000 1.000000
v -0.929289 -0.729289 0.729289
v -1.000000 -0.800000 0.800000
v -1.000000 -0.800000 -0.800000
v -0.929289 -0.729289 -0.729290
v -0.800000 0.800000 1.000000
v -0.729290 0.729289 0.929289
v -0.929290 0.729289 0.729289
v -1.000000 0.800000 0.800000
v -1.000000 0.800000 -0.800000
v -0.929289 0.729289 -0.729289
v -0.729289 0.729289 -0.929289
v -0.800000 0.800000 -1.000000
v 0.729290 0.929289 -0.729289
v 0.800000 1.000000 -0.800000
v 0.799999 1.000000 0.800001
v 0.729289 0.929289 0.729290
v -0.729289 0.929289 -0.729289
v -0.800000 1.000000 -0.800000
v -0.800000 1.000000 0.800000
v -0.729290 0.929289 0.729289
v 0.531902 0.776818 0.385736
v 0.385735 0.776818 0.531903
v 0.489091 0.776818 0.489091
v 0.385736 0.776818 -0.531902
v 0.531902 0.776818 -0.385735
v 0.489091 0.776818 -0.489091
v -0.531902 0.776818 -0.385735
v -0.385735 0.776818 -0.531902
v -0.489091 0.776818 -0.489091
v -0.385736 0.776818 0.531902
v -0.531902 0.776818 0.385735
v -0.489091 0.776818 0.489091
v 0.385735 0.957001 0.531903
v 0.531902 0.957001 0.385736
v 0.489091 0.957001 0.489091
v 0.531902 0.957001 -0.385735
v 0.385736 0.957001 -0.531902
v 0.489091 0.957001 -0.489091
v -0.385735 0.957001 -0.531902
v -0.531902 0.957001 -0.385735
v -0.489091 0.957001 -0.489091
v -0.531902 0.957001 0.385735
v -0.385736 0.957001 0.531902
v -0.489091 0.957001 0.489091
v -0.427629 0.957001 -0.427629
v -0.369762 0.957001 -0.451598
v -0.451598 0.957001 -0.369762
v -0.369762 0.957001 0.451598
v -0.427629 0.957001 0.427629
v -0.451599 0.957001 0.369762
v 0.451598 0.957001 0.369762
v 0.427629 0.957001 0.427629
v 0.369762 0.957001 0.451599
v 0.427629 0.957001 -0.427629
v 0.451598 0.957001 -0.369762
v 0.369762 0.957001 -0.451598
v -0.427629 0.906120 -0.427629
v -0.369762 0.906120 -0.451598
v -0.451598 0.906120 -0.369762
v -0.369762 0.906120 0.451598
v -0.427629 0.906120 0.427629
v -0.451599 0.906120 0.369762
v 0.451598 0.906120 0.369762
v 0.427629 0.906120 0.427629
v 0.369762 0.906120 0.451599
v 0.427629 0.906120 -0.427629
v 0.451598 0.906120 -0.369762
v 0.369762 0.906120 -0.451598
v -0.301017 0.896258 0.193443
v -0.398195 0.896258 0.193443
v -0.301017 0.896258 -0.193443
v -0.398195 0.896258 -0.193443
v -0.390107 0.969930 -0.151049
v -0.390107 0.969930 0.151049
v -0.309104 0.969930 0.151049
v -0.309104 0.969930 -0.151049
v -0.301017 0.896258 0.192443
v -0.398195 0.896258 0.192443
v -0.301017 0.896258 -0.192443
v -0.398195 0.896258 -0.192443
v -0.390107 0.969930 -0.150049
v -0.390107 0.969930 0.150049
v -0.309104 0.969930 0.150049
v -0.309104 0.969930 -0.150049
v 0.929289 -1.000000 -0.929289
v 0.929289 -1.000000 -0.929289
v 0.929289 -1.000000 -0.929289
v 0.929289 -0.929289 -1.000000
v 0.929289 -0.929289 -1.000000
v 0.929289 -0.929289 -1.000000
v 1.000000 -0.929289 -0.929289
v 1.000000 -0.929289 -0.929289
v 1.000000 -0.929289 -0.929289
v 0.929289 -0.929289 1.000000
v 0.929289 -0.929289 1.000000
v 0.929289 -0.929289 1.000000
v 0.929289 -1.000000 0.929289
v 0.929289 -1.000000 0.929289
v 0.929289 -1.000000 0.929289
v 1.000000 -0.929289 0.929289
v 1.000000 -0.929289 0.929289
v 1.000000 -0.929289 0.929289
v -1.000000 -0.929289 0.929289
v -1.000000 -0.929289 0.929289
v -1.000000 -0.929289 0.929289
v -0.929289 -1.000000 0.929289
v -0.929289 -1.000000 0.929289
v -0.929289 -1.000000 0.929289
v -0.929289 -0.929289 1.000000
v -0.929289 -0.929289 1.000000
v -0.929289 -0.929289 1.000000
v -0.929289 -1.000000 -0.929290
v -0.929289 -1.000000 -0.929290
v -0.929289 -1.000000 -0.929290
v -1.000000 -0.929289 -0.929290
v -1.000000 -0.929289 -0.929290
v -1.000000 -0.929289 -0.929290
v -0.929289 -0.929289 -1.000000
v -0.929289 -0.929289 -1.000000
v -0.929289 -0.929289 -1.000000
v 0.929290 1.000000 -0.929289
v 0.929290 1.000000 -0.929289
v 0.929290 1.000000 -0.929289
v 1.000000 0.929289 -0.929289
v 1.000000 0.929289 -0.929289
v 1.000000 0.929289 -0.929289
v 0.929290 0.929289 -0.999999
v 0.929290 0.929289 -0.999999
v 0.929290 0.929289 -0.999999
v 0.999999 0.929289 0.929290
v 0.999999 0.929289 0.929290
v 0.999999 0.929289 0.929290
v 0.929289 1.000000 0.929290
v 0.929289 1.000000 0.929290
v 0.929289 1.000000 0.929290
v 0.929289 0.929289 1.000001
v 0.929289 0.929289 1.000001
v 0.929289 0.929289 1.000001
v -0.929290 0.929289 1.000000
v -0.929290 0.929289 1.000000
v -0.929290 0.929289 1.000000
v -0.929290 1.000000 0.929289
v -0.929290 1.000000 0.929289
v -0.929290 1.000000 0.929289
v -1.000000 0.929289 0.929289
v -1.000000 0.929289 0.929289
v -1.000000 0.929289 0.929289
v -0.929289 1.000000 -0.929289
v -0.929289 1.000000 -0.929289
v -0.929289 1.000000 -0.929289
v -0.929289 0.929289 -1.000000
v -0.929289 0.929289 -1.000000
v -0.929289 0.929289 -1.000000
v -1.000000 0.929289 -0.929289
v -1.000000 0.929289 -0.929289
v -1.000000 0.929289 -0.929289
v 0.729289 -0.729289 -0.800000
v 0.729289 -0.729289 -0.800000
v 0.729290 0.729289 -0.800000
v 0.729290 0.729289 -0.800000
v -0.729289 -0.729289 -0.800000
v -0.729289 -0.729289 -0.800000
v -0.729289 0.729289 -0.800000
v -0.729289 0.729289 -0.800000
v 0.729289 0.729289 0.800000
v 0.729289 0.729289 0.800000
v 0.729289 -0.729289 0.800000
v 0.729289 -0.729289 0.800000
v -0.729290 0.729289 0.800000
v -0.729290 0.729289 0.800000
v -0.729289 -0.729289 0.800000
v -0.729289 -0.729289 0.800000
v -0.800000 0.729289 0.729289
v -0.800000 0.729289 0.729289
v -0.800000 -0.729289 0.729289
v -0.800000 -0.729289 0.729289
v -0.800000 0.729289 -0.729289
v -0.800000 0.729289 -0.729289
v -0.800000 -0.729289 -0.729290
v -0.800000 -0.729289 -0.729290
v -0.729289 0.800000 -0.729289
v -0.729289 0.800000 -0.729289
v 0.729290 0.800000 -0.729289
v 0.729290 0.800000 -0.729289
v -0.729290 0.800000 0.729289
v -0.729290 0.800000 0.729289
v 0.729289 0.800000 0.729290
v 0.729289 0.800000 0.729290
v 0.800000 0.729289 -0.729289
v 0.800000 0.729289 -0.729289
v 0.800000 -0.729289 -0.729289
v 0.800000 -0.729289 -0.729289
v 0.799999 0.729289 0.729290
v 0.799999 0.729289 0.729290
v 0.800000 -0.729289 0.729289
v 0.800000 -0.729289 0.729289
v 0.729289 -0.800000 0.729289
v 0.729289 -0.800000 0.729289
v 0.729289 -0.800000 -0.729289
v 0.729289 -0.800000 -0.729289
v -0.729289 -0.800000 0.729289
v -0.729289 -0.800000 0.729289
v -0.729289 -0.800000 -0.729290
v -0.729289 -0.800000 -0.729290
v 1.000000 -0.800000 -0.800000
v 1.000000 -0.800000 -0.800000
v 0.929289 -0.729289 -0.729289
v 0.929289 -0.729289 -0.729289
v 0.929289 -0.729289 -0.729289
v 0.929289 -0.729289 0.729289
v 0.929289 -0.729289 0.729289
v 0.929289 -0.729289 0.729289
v 1.000000 -0.800000 0.800000
v 1.000000 -0.800000 0.800000
v 0.800000 -1.000000 0.800000
v 0.800000 -1.000000 0.800000
v 0.729289 -0.929289 0.729289
v 0.729289 -0.929289 0.729289
v 0.729289 -0.929289 0.729289
v 0.729289 -0.929289 -0.729289
v 0.729289 -0.929289 -0.729289
v 0.729289 -0.929289 -0.729289
v 0.800000 -1.000000 -0.800000
v 0.800000 -1.000000 -0.800000
v -0.729289 -0.929289 -0.729290
v -0.729289 -0.929289 -0.729290
v -0.729289 -0.929289 -0.729290
v -0.800000 -1.000000 -0.800000
v -0.800000 -1.000000 -0.800000
v -0.800000 -0.800000 -1.000000
v -0.800000 -0.800000 -1.000000
v -0.729289 -0.729289 -0.929290
v -0.729289 -0.729289 -0.929290
v -0.729289 -0.729289 -0.929290
v 0.729289 -0.729289 -0.929289
v 0.729289 -0.729289 -0.929289
v 0.729289 -0.729289 -0.929289
v 0.800000 -0.800000 -1.000000
v 0.800000 -0.800000 -1.000000
v 0.729290 0.729289 -0.929289
v 0.729290 0.729289 -0.929289
v 0.729290 0.729289 -0.929289
v 0.800000 0.800000 -1.000000
v 0.800000 0.800000 -1.000000
v 1.000000 0.800000 -0.800000
v 1.000000 0.800000 -0.800000
v 0.929290 0.729289 -0.729289
v 0.929290 0.729289 -0.729289
v 0.929290 0.729289 -0.729289
v 0.800000 -0.800000 1.000000
v 0.800000 -0.800000 1.000000
v 0.729289 -0.729289 0.929289
v 0.729289 -0.729289 0.929289
v 0.729289 -0.729289 0.929289
v -0.729289 -0.729289 0.929289
v -0.729289 -0.729289 0.929289
v -0.729289 -0.729289 0.929289
v -0.800000 -0.800000 1.000000
v -0.800000 -0.800000 1.000000
v -0.800000 -1.000000 0.800000
v -0.800000 -1.000000 0.800000
v -0.729289 -0.929289 0.729289
v -0.729289 -0.929289 0.729289
v -0.729289 -0.929289 0.729289
v 0.929289 0.729289 0.729290
v 0.929289 0.729289 0.729290
v 0.929289 0.729289 0.729290
v 0.999999 0.800000 0.800001
v 0.999999 0.800000 0.800001
v 0.799999 0.800000 1.000000
v 0.799999 0.800000 1.000000
v 0.729289 0.729289 0.929290
v 0.729289 0.729289 0.929290
v 0.729289 0.729289 0.929290
v -1.000000 -0.800000 0.800000
v -1.000000 -0.800000 0.800000
v -0.929289 -0.729289 0.729289
v -0.929289 -0.729289 0.729289
v -0.929289 -0.729289 0.729289
v -0.929289 -0.729289 -0.729290
v -0.929289 -0.729289 -0.729290
v -0.929289 -0.729289 -0.729290
v -1.000000 -0.800000 -0.800000
v -1.000000 -0.800000 -0.800000
v -0.729290 0.729289 0.929289
v -0.729290 0.729289 0.929289
v -0.729290 0.729289 0.929289
v -0.800000 0.800000 1.000000
v -0.800000 0.800000 1.000000
v -1.000000 0.800000 0.800000
v -1.000000 0.800000 0.800000
v -0.929290 0.729289 0.729289
v -0.929290 0.729289 0.729289
v -0.929290 0.729289 0.729289
v -0.929289 0.729289 -0.729289
v -0.929289 0.729289 -0.729289
v -0.929289 0.729289 -0.729289
v -1.000000 0.800000 -0.800000
v -1.000000 0.800000 -0.800000
v -0.800000 0.800000 -1.000000
v -0.800000 0.800000 -1.000000
v -0.729289 0.729289 -0.929289
v -0.729289 0.729289 -0.929289
v -0.729289 0.729289 -0.929289
v 0.800000 1.000000 -0.800000
v 0.800000 1.000000 -0.800000
v 0.729290 0.929289 -0.729289
v 0.729290 0.929289 -0.729289
v 0.729290 0.929289 -0.729289
v 0.729289 0.929289 0.729290
v 0.729289 0.929289 0.729290
v 0.729289 0.929289 0.729290
v 0.799999 1.000000 0.800001
v 0.799999 1.000000 0.800001
v -0.800000 1.000000 -0.800000
v -0.800000 1.000000 -0.800000
v -0.729289 0.929289 -0.729289
v -0.729289 0.929289 -0.729289
v -0.729289 0.929289 -0.729289
v -0.729290 0.929289 0.729289
v -0.729290 0.929289 0.729289
v -0.729290 0.929289 0.729289
v -0.800000 1.000000 0.800000
v -0.800000 1.000000 0.800000
v -0.489091 0.957001 -0.489091
v -0.489091 0.957001 -0.489091
v -0.385735 0.957001 -0.531902
v -0.489091 0.776818 -0.489091
v -0.531902 0.957001 -0.385735
v -0.385736 0.957001 0.531902
v -0.489091 0.957001 0.489091
v -0.489091 0.957001 0.489091
v -0.489091 0.776818 0.489091
v -0.531902 0.957001 0.385735
v 0.531902 0.957001 0.385736
v 0.489091 0.957001 0.489091
v 0.489091 0.957001 0.489091
v 0.489091 0.776818 0.489091
v 0.385735 0.957001 0.531903
v 0.489091 0.957001 -0.489091
v 0.489091 0.957001 -0.489091
v 0.531902 0.957001 -0.385735
v 0.489091 0.776818 -0.489091
v 0.385736 0.957001 -0.531902
v -0.427629 0.957001 -0.427629
v -0.369762 0.957001 -0.451598
v -0.451598 0.957001 -0.369762
v -0.369762 0.957001 0.451598
v -0.427629 0.957001 0.427629
v -0.451599 0.957001 0.369762
v 0.451598 0.957001 0.369762
v 0.427629 0.957001 0.427629
v 0.369762 0.957001 0.451599
v 0.427629 0.957001 -0.427629
v 0.451598 0.957001 -0.369762
v 0.369762 0.957001 -0.451598
v -0.427629 0.906120 -0.427629
v -0.369762 0.906120 -0.451598
v -0.451598 0.906120 -0.369762
v -0.369762 0.906120 0.451598
v -0.427629 0.906120 0.427629
v -0.451599 0.906120 0.369762
v 0.451598 0.906120 0.369762
v 0.427629 0.906120 0.427629
v 0.369762 0.906120 0.451599
v 0.427629 0.906120 -0.427629
v 0.451598 0.906120 -0.369762
v 0.369762 0.906120 -0.451598
v -0.309104 0.969930 0.151049
v -0.390107 0.969930 0.151049
v -0.309104 0.969930 -0.151049
v -0.390107 0.969930 -0.151049
vt 0.062500 0.437500
vt 0.062500 0.687500
vt 0.062500 0.562500
vt 0.562500 0.937500
vt 0.062500 0.812500
vn 0.577350 -0.577350 -0.577350
vn 0.577350 -0.577350 0.577350
vn -0.577350 -0.577350 0.577350
vn -0.577350 -0.577350 -0.577350
vn 0.577350 0.577350 -0.577350
vn 0.577351 0.577350 0.577350
vn -0.577351 0.577349 0.577351
vn -0.577350 0.577350 -0.577350
vn 0.707107 -0.707107 0.000000
vn 0.000000 -0.707107 -0.707107
vn 0.707107 0.000000 -0.707107
vn -0.000000 -0.707107 0.707107
vn 0.707107 0.000000 0.707107
vn 0.707106 -0.000000 0.707107
vn -0.707107 -0.707107 -0.000000
vn -0.707107 0.000000 0.707107
vn -0.707107 0.000000 -0.707107
vn -0.707107 0.000000 -0.707106
vn 0.707107 0.707107 0.000000
vn 0.707107 0.707106 0.000000
vn 0.000000 0.707107 -0.707107
vn -0.000000 0.707107 0.707107
vn -0.000000 0.707106 0.707107
vn -0.707107 0.707106 -0.000000
vn -0.707107 0.707107 -0.000000
vn 0.000000 -0.000000 1.000000
vn -0.000001 -0.000000 1.000000
vn 0.000000 0.000000 -1.000000
vn 1.000000 0.000000 0.000000
vn -1.000000 0.000000 -0.000000
vn 0.000000 1.000000 0.000000
vn 0.000001 -0.000000 -1.000000
vn -0.000000 1.000000 0.000001
vn -0.000000 1.000000 -0.000001
vn 0.000000 -1.000000 -0.000003
vn 0.000000 -1.000000 -0.000002
vn 0.000000 -1.000000 0.000001
vn -1.000000 0.000000 -0.000001
vn 0.000000 -1.000000 0.000000
vn -1.000000 -0.000001 -0.000000
vn 1.000000 0.000001 0.000000
vn 0.707106 0.707107 -0.000000
vn -0.000000 -0.707106 0.707107
vn 0.000000 0.707108 -0.707106
vn -0.707106 0.000000 -0.707107
vn 0.707108 -0.000000 0.707106
vn 0.000000 -0.707106 -0.707107
vn 0.707107 0.000001 -0.707107
vn 0.707107 0.000000 -0.707106
vn -0.707106 -0.000001 0.707108
vn -0.707107 -0.000000 0.707106
vn 0.707107 0.000000 0.707106
vn 0.707106 -0.707107 0.000001
vn 0.707108 -0.707106 0.000000
vn 0.000000 -0.707107 -0.707106
vn -0.000000 0.707107 0.707106
vn -0.000000 -0.707108 0.707106
vn -0.000000 -0.707107 0.707106
vn -0.707106 -0.707107 -0.000000
vn -0.195091 0.000000 0.980785
vn 0.195090 0.000000 0.980785
vn -0.980785 0.000000 -0.195091
vn -0.980785 0.000000 0.195090
vn 0.980785 0.000000 0.195091
vn 0.980785 0.000000 -0.195090
vn 0.195090 0.000000 -0.980785
vn -0.195090 0.000000 -0.980785
vn 0.195091 0.000000 -0.980785
vn -0.382683 0.000000 -0.923880
vn -0.923880 0.000000 -0.382684
vn -0.923879 0.000000 -0.382684
vn -0.382684 0.000000 0.923879
vn -0.923880 0.000000 0.382683
vn 0.923879 0.000000 0.382684
vn 0.382682 0.000000 0.923880
vn 0.382683 0.000000 0.923880
vn 0.923880 0.000000 -0.382683
vn 0.382684 0.000000 -0.923879
vn -0.707106 0.000000 -0.707108
vn 0.000000 0.498759 -0.866740
vn 0.000000 0.498759 -0.866741
vn 0.000000 0.498758 0.866741
vn 0.000000 0.498759 0.866741
vn 0.000000 -0.498759 0.866740
vn 0.000000 -0.498759 0.866741
vn 0.000000 -0.498758 0.866741
vn 0.000000 -0.498758 -0.866741
vn 1.000000 0.000000 0.000001
vn -0.382682 0.000000 -0.923880
vn 0.923880 0.000000 0.382684
vn 0.000000 1.000000 -0.000004
vn 0.000000 0.498758 -0.866741
vn 0.000000 0.498760 0.866740
vn 0.000000 -0.498759 -0.866741
s 1
f 1/1/1 2/1/1 3/1/1
f 4/1/2 5/1/2 6/1/2
f 7/1/3 8/1/3 9/1/3
f 10/1/4 11/1/4 12/1/4
f 13/1/5 14/1/5 15/1/5
f 16/1/6 17/1/6 18/1/6
f 19/1/7 20/1/7 21/1/7
f 22/1/8 23/1/8 24/1/8
f 167/1/9 176/1/9 161/1/9
f 162/1/10 188/1/10 164/1/10
f 165/1/11 203/1/11 168/1/11
f 170/1/12 185/1/12 174/1/12
f 177/1/13 206/1/14 171/1/13
f 179/1/15 191/1/15 183/1/15
f 186/1/16 215/1/16 180/1/16
f 192/1/17 230/1/18 195/1/17
f 197/1/19 209/1/20 201/1/19
f 204/1/21 228/1/21 198/1/21
f 210/1/22 218/1/23 213/1/22
f 219/1/24 225/1/25 222/1/24
f 323/2/26 42/2/26 284/2/27
f 338/2/28 47/2/28 294/2/28
f 297/2/26 275/2/26 58/2/26
f 378/2/29 28/2/29 309/2/29
f 312/2/30 26/2/30 64/2/30
f 283/2/31 267/2/31 52/2/31
f 348/2/30 30/2/30 329/2/30
f 293/2/30 46/2/30 56/2/30
f 287/2/28 44/2/28 74/2/28
f 328/2/31 243/2/31 70/2/31
f 368/2/28 34/2/28 354/2/32
f 302/2/29 48/2/29 339/2/29
f 332/2/29 32/2/29 82/2/29
f 353/2/31 251/2/31 80/2/31
f 357/2/26 36/2/26 86/2/27
f 308/2/33 27/2/33 62/2/34
f 393/2/26 38/2/26 384/2/26
f 326/3/27 334/3/26 172/3/27
f 317/2/35 235/2/36 379/2/37
f 383/2/38 259/2/38 92/2/38
f 387/2/28 40/2/28 96/2/28
f 351/3/30 359/3/30 181/3/30
f 381/3/31 389/3/31 199/3/31
f 236/4/28 234/4/28 238/4/28
f 319/3/32 376/3/28 205/3/32
f 314/3/28 319/3/32 166/3/28
f 376/3/28 306/3/32 229/3/28
f 342/2/39 43/2/39 324/2/39
f 244/4/26 242/4/26 248/4/26
f 346/3/26 326/3/27 214/3/26
f 364/3/26 346/3/26 217/3/26
f 362/2/39 31/2/39 349/2/39
f 334/3/26 364/3/26 187/3/26
f 252/4/30 249/4/30 35/4/30
f 366/3/38 351/3/30 223/3/38
f 374/3/40 366/3/38 232/3/40
f 372/2/39 254/2/39 369/2/39
f 359/3/30 374/3/40 193/3/30
f 260/4/31 258/4/31 264/4/31
f 391/3/33 381/3/31 226/3/33
f 399/3/31 391/3/33 220/3/31
f 397/2/29 39/2/29 394/2/29
f 389/3/31 399/3/31 211/3/31
f 268/4/29 266/4/29 272/4/29
f 321/3/41 281/3/29 202/3/41
f 344/3/29 321/3/41 208/3/29
f 291/3/39 299/3/39 175/3/39
f 289/3/41 344/3/29 178/3/41
f 276/4/39 274/4/39 278/4/39
f 299/3/39 304/3/39 163/3/39
f 336/3/39 291/3/39 184/3/39
f 306/3/32 314/3/28 196/3/32
f 304/3/39 336/3/39 190/3/39
f 49/3/19 286/3/42 50/3/19
f 53/3/15 296/3/15 54/3/15
f 298/3/12 301/3/43 300/3/12
f 59/3/44 311/3/21 60/3/44
f 313/3/45 316/3/18 315/3/17
f 65/3/46 285/3/13 66/3/46
f 67/3/22 331/3/22 68/3/22
f 71/3/10 295/3/47 72/3/10
f 288/3/48 341/3/49 290/3/48
f 75/3/50 330/3/51 76/3/50
f 77/3/25 356/3/25 78/3/25
f 303/3/9 340/3/9 305/3/9
f 333/3/13 361/3/52 335/3/13
f 83/3/17 355/3/17 84/3/17
f 358/3/16 371/3/16 360/3/16
f 87/3/49 310/3/11 88/3/49
f 89/3/25 386/3/25 90/3/25
f 343/3/53 325/3/54 345/3/53
f 318/3/55 380/3/10 320/3/55
f 93/3/22 385/3/56 94/3/22
f 388/3/44 396/3/21 390/3/44
f 363/3/57 350/3/12 365/3/58
f 398/3/19 395/3/19 400/3/19
f 373/3/59 370/3/15 375/3/59
f 281/3/29 289/3/41 169/3/29
f 106/3/60 98/3/61 119/3/60
f 103/3/62 107/3/63 116/3/62
f 423/5/64 426/5/65 435/5/64
f 100/3/66 104/3/67 113/3/68
f 115/3/67 104/3/67 117/3/69
f 401/3/70 105/3/71 116/3/62
f 106/3/60 119/3/60 108/3/72
f 409/3/73 407/3/73 107/3/63
f 97/3/64 110/3/64 99/3/74
f 414/3/75 412/3/76 98/3/61
f 112/3/65 101/3/65 114/3/77
f 416/3/78 102/3/78 113/3/68
f 97/3/64 101/3/65 110/3/64
f 121/3/31 122/3/31 402/3/31
f 123/3/31 121/3/31 402/3/31
f 124/3/31 125/3/31 408/3/31
f 125/3/31 126/3/31 408/3/31
f 127/3/31 128/3/31 413/3/31
f 128/3/31 129/3/31 413/3/31
f 130/3/34 131/3/31 417/3/34
f 132/3/34 130/3/34 417/3/34
f 131/3/31 127/3/31 418/3/31
f 129/3/31 124/3/31 415/3/31
f 122/3/31 132/3/34 403/3/31
f 126/3/31 123/3/31 410/3/31
f 144/1/31 143/1/31 142/1/34
f 432/5/60 422/5/61 444/5/60
f 424/5/68 429/5/67 436/5/68
f 427/5/62 431/5/63 439/5/62
f 430/5/51 432/5/60 442/5/51
f 431/5/63 430/5/51 443/5/63
f 429/5/67 428/5/45 441/5/67
f 428/5/45 427/5/62 440/5/79
f 426/5/65 425/5/49 438/5/65
f 425/5/49 424/5/68 437/5/49
f 421/5/13 423/5/64 433/5/14
f 422/5/61 421/5/13 434/5/61
f 149/2/80 152/2/81 148/2/81
f 146/2/82 145/2/83 150/2/83
f 446/3/31 445/3/31 448/3/31
f 157/5/84 156/5/85 160/5/86
f 154/5/87 158/5/87 153/5/87
f 240/4/28 236/4/28 238/4/28
f 256/4/30 252/4/30 35/4/30
f 242/4/26 246/4/26 248/4/26
f 258/4/31 262/4/31 264/4/31
f 280/4/39 276/4/39 278/4/39
f 266/4/29 270/4/88 272/4/29
f 176/1/9 173/1/9 161/1/9
f 188/1/10 194/1/10 164/1/10
f 203/1/11 200/1/11 168/1/11
f 185/1/12 182/1/12 174/1/12
f 206/1/14 212/1/14 171/1/13
f 191/1/15 189/1/15 183/1/15
f 215/1/16 221/1/16 180/1/16
f 230/1/18 227/1/18 195/1/17
f 209/1/20 207/1/20 201/1/19
f 228/1/21 224/1/21 198/1/21
f 218/1/23 216/1/23 213/1/22
f 225/1/25 231/1/25 222/1/24
f 42/2/26 41/2/27 284/2/27
f 47/2/28 273/2/28 294/2/28
f 275/2/26 279/2/26 58/2/26
f 28/2/29 237/2/29 309/2/29
f 26/2/30 25/2/30 64/2/30
f 267/2/31 271/2/31 52/2/31
f 30/2/30 29/2/30 329/2/30
f 46/2/30 45/2/30 56/2/30
f 44/2/28 269/2/28 74/2/28
f 243/2/31 247/2/31 70/2/31
f 34/2/28 33/2/32 354/2/32
f 48/2/29 277/2/29 339/2/29
f 32/2/29 245/2/29 82/2/29
f 251/2/31 255/2/31 80/2/31
f 36/2/26 253/2/27 86/2/27
f 27/2/33 233/2/34 62/2/34
f 38/2/26 37/2/26 384/2/26
f 334/3/26 187/3/26 172/3/27
f 235/2/36 239/2/37 379/2/37
f 259/2/38 263/2/38 92/2/38
f 40/2/28 261/2/28 96/2/28
f 359/3/30 193/3/30 181/3/30
f 389/3/31 211/3/31 199/3/31
f 376/3/28 229/3/28 205/3/32
f 319/3/32 205/3/32 166/3/28
f 306/3/32 196/3/32 229/3/28
f 43/2/39 265/2/39 324/2/39
f 326/3/27 172/3/27 214/3/26
f 346/3/26 214/3/26 217/3/26
f 31/2/39 241/2/39 349/2/39
f 364/3/26 217/3/26 187/3/26
f 351/3/30 181/3/30 223/3/38
f 366/3/38 223/3/38 232/3/40
f 254/2/39 250/2/39 369/2/39
f 374/3/40 232/3/40 193/3/30
f 381/3/31 199/3/31 226/3/33
f 391/3/33 226/3/33 220/3/31
f 39/2/29 257/2/29 394/2/29
f 399/3/31 220/3/31 211/3/31
f 281/3/29 169/3/29 202/3/41
f 321/3/41 202/3/41 208/3/29
f 299/3/39 163/3/39 175/3/39
f 344/3/29 208/3/29 178/3/41
f 304/3/39 190/3/39 163/3/39
f 291/3/39 175/3/39 184/3/39
f 314/3/28 166/3/28 196/3/32
f 336/3/39 184/3/39 190/3/39
f 286/3/42 51/3/42 50/3/19
f 296/3/15 55/3/15 54/3/15
f 301/3/43 57/3/43 300/3/12
f 311/3/21 61/3/21 60/3/44
f 316/3/18 63/3/18 315/3/17
f 285/3/13 282/3/13 66/3/46
f 331/3/22 69/3/22 68/3/22
f 295/3/47 292/3/47 72/3/10
f 341/3/49 73/3/49 290/3/48
f 330/3/51 327/3/51 76/3/50
f 356/3/25 79/3/25 78/3/25
f 340/3/9 337/3/9 305/3/9
f 361/3/52 81/3/52 335/3/13
f 355/3/17 352/3/17 84/3/17
f 371/3/16 85/3/16 360/3/16
f 310/3/11 307/3/11 88/3/49
f 386/3/25 91/3/25 90/3/25
f 325/3/54 322/3/54 345/3/53
f 380/3/10 377/3/10 320/3/55
f 385/3/56 382/3/56 94/3/22
f 396/3/21 95/3/21 390/3/44
f 350/3/12 347/3/12 365/3/58
f 395/3/19 392/3/19 400/3/19
f 370/3/15 367/3/15 375/3/59
f 289/3/41 178/3/41 169/3/29
f 98/3/61 109/3/61 119/3/60
f 107/3/63 118/3/63 116/3/62
f 426/5/65 438/5/65 435/5/64
f 104/3/67 115/3/67 113/3/68
f 104/3/67 404/3/89 117/3/69
f 105/3/71 103/3/62 116/3/62
f 119/3/60 120/3/72 108/3/72
f 407/3/73 118/3/63 107/3/63
f 110/3/64 111/3/90 99/3/74
f 412/3/76 109/3/61 98/3/61
f 101/3/65 419/3/77 114/3/77
f 102/3/78 100/3/66 113/3/68
f 101/3/65 112/3/65 110/3/64
f 122/3/31 403/3/31 402/3/31
f 405/3/31 123/3/31 402/3/31
f 406/3/33 124/3/31 408/3/31
f 126/3/31 410/3/31 408/3/31
f 411/3/31 127/3/31 413/3/31
f 129/3/31 415/3/31 413/3/31
f 131/3/31 418/3/31 417/3/34
f 420/3/34 132/3/34 417/3/34
f 127/3/31 411/3/31 418/3/31
f 124/3/31 406/3/33 415/3/31
f 132/3/34 420/3/34 403/3/31
f 123/3/31 405/3/31 410/3/31
f 135/1/31 134/1/31 133/1/31
f 141/1/34 140/1/91 139/1/34
f 137/1/31 136/1/31 138/1/31
f 134/1/31 143/1/31 144/1/31
f 134/1/31 139/1/34 143/1/31
f 138/1/31 134/1/31 135/1/31
f 138/1/31 139/1/34 134/1/31
f 136/1/31 141/1/34 138/1/31
f 141/1/34 139/1/34 138/1/31
f 422/5/61 434/5/61 444/5/60
f 429/5/67 441/5/67 436/5/68
f 431/5/63 443/5/63 439/5/62
f 432/5/60 444/5/60 442/5/51
f 430/5/51 442/5/51 443/5/63
f 428/5/45 440/5/79 441/5/67
f 427/5/62 439/5/62 440/5/79
f 425/5/49 437/5/49 438/5/65
f 424/5/68 436/5/68 437/5/49
f 423/5/64 435/5/64 433/5/14
f 421/5/13 433/5/14 434/5/61
f 152/2/81 147/2/92 148/2/81
f 145/2/83 151/2/93 150/2/83
f 445/3/31 447/3/31 448/3/31
f 156/5/85 155/5/86 160/5/86
f 158/5/87 159/5/94 153/5/87
